<svg width="24" height="28" viewBox="0 0 24 28" fill="none" xmlns="http://www.w3.org/2000/svg">
<path d="M16.0391 25.0616C16.0391 25.6044 16.0548 23.9747 16.1127 23.4347C16.3139 21.5573 16.5476 19.6836 16.7175 17.8032C16.8711 16.1036 16.9639 14.3805 16.9748 12.6741C16.9764 12.4138 17.0395 12.0652 16.9597 11.811C16.9163 11.6725 16.9281 11.8815 16.9392 11.9216M11.5606 25.7543C11.5545 25.8458 11.5504 26.3091 11.5222 25.9589C11.4656 25.2573 11.4995 24.5516 11.442 23.8485C11.3329 22.5163 11.3077 21.1874 11.329 19.8514C11.356 18.1468 11.2858 16.4392 11.3753 14.736C11.5417 11.569 11.5242 8.3991 11.6581 5.23135C11.6978 4.29089 11.7943 3.36271 11.8939 2.42695C11.9173 2.20675 12.0268 1.69514 11.8797 1.49573M7.61203 26.4957C7.70541 26.4957 7.55305 25.8457 7.54726 25.8055C7.43777 25.0448 7.46376 24.2443 7.4292 23.4772C7.34621 21.6357 7.33551 19.796 7.2774 17.955C7.23189 16.5129 7.09214 15.0719 7.09214 13.6278C7.09214 13.1992 7.10224 12.7694 7.09187 12.3408C7.0886 12.2055 7.07856 11.9897 7 12.2163" stroke="#024A70" stroke-width="2" stroke-linecap="round" stroke-linejoin="round"/>
</svg>
