<svg width="28" height="35" viewBox="0 0 28 35" fill="none" xmlns="http://www.w3.org/2000/svg">
<path d="M20.5092 5.26808C20.5092 4.62482 20.2093 4.03734 20.2093 3.34669C20.2093 2.71773 20.5034 2.27321 20.959 2.0014M20.959 2.0014C22.5214 1.06931 25.9833 2.16823 25.9999 4.82512C26.0167 7.501 21.9655 9.61571 19.9039 7.72491C19.5537 7.40377 19.2779 7.03072 19.0775 6.6314M20.959 2.0014C18.7847 2.56063 18.1861 4.85569 19.0775 6.6314M20.959 2.0014C21.0174 1.98639 21.0769 1.97263 21.1375 1.96016C21.7375 1.83682 24.2301 2.61315 23.1042 3.50938C21.8061 4.54275 20.4308 5.57896 19.0775 6.6314M19.0775 6.6314C18.4947 7.08463 17.916 7.54087 17.3493 8.00119C12.9845 11.5466 7.06471 14.6898 3.87823 19.4062C3.40003 20.114 2.59492 20.5665 2.0571 21.2243C1.80287 21.5353 2.46221 21.3585 2.76675 21.3585C4.28703 21.3585 5.44751 21.988 6.7914 22.6651C10.9832 24.7769 15.1693 27.7405 19.5745 29.3375M19.5745 29.3375C19.6098 29.3503 19.6452 29.3631 19.6805 29.3757C21.3582 29.975 21.1591 30.5433 20.9209 28.8488C20.7998 27.9873 21.1262 27.2264 21.6599 26.7117M19.5745 29.3375C19.5891 31.1039 20.1403 33.4421 22.2145 32.8748C24.6076 32.2203 26.6771 29.509 25.0932 27.0713C24.1778 25.6625 22.5983 25.8065 21.6599 26.7117M19.5745 29.3375C19.5721 29.0459 19.5843 28.7699 19.6068 28.5252C19.6784 27.7424 20.6128 27.0377 21.6599 26.7117M21.6599 26.7117C23.0644 26.2744 24.6719 26.5186 24.6719 28.1707" stroke="#232F61" stroke-width="3" stroke-linecap="round" stroke-linejoin="round"/>
</svg>
